<svg width="48" height="48" viewBox="0 0 48 48" fill="none" xmlns="http://www.w3.org/2000/svg">
<rect width="48" height="48" fill="#1B3C53"/>
<path d="M36.7803 25.6236L24.0136 23.9648L16.2316 34.2205M19.0437 12.0856L24.0185 23.9766M11.4523 23.6893L15.4005 33.1266C15.574 33.5401 15.853 33.9009 16.2094 34.1727C16.5659 34.4445 16.9872 34.6177 17.4312 34.675L27.6437 35.947C28.0881 36.0044 28.5396 35.9436 28.9528 35.7707C29.366 35.5979 29.7263 35.3191 29.9975 34.9623L36.2617 26.797C36.5326 26.4406 36.705 26.0189 36.7618 25.5743C36.8185 25.1297 36.7574 24.6777 36.5848 24.2638L32.6365 14.8265C32.463 14.413 32.184 14.0522 31.8276 13.7804C31.4712 13.5087 31.0498 13.3354 30.6058 13.2781L20.3934 12.0061C19.9489 11.9487 19.4974 12.0095 19.0842 12.1824C18.6711 12.3552 18.3108 12.6341 18.0396 12.9909L11.7754 21.1561C11.5045 21.5125 11.332 21.9342 11.2753 22.3788C11.2186 22.8235 11.2796 23.2754 11.4523 23.6893Z" stroke="#A4CFC9" stroke-width="2" stroke-linecap="round" stroke-linejoin="round"/>
<path d="M6.54 13.9198L24 24.0198L41.46 13.9198M24 44.1598V23.9998M42 31.9998V15.9998C41.9993 15.2984 41.8141 14.6094 41.4631 14.0021C41.112 13.3948 40.6075 12.8905 40 12.5398L26 4.5398C25.3919 4.18873 24.7021 4.00391 24 4.00391C23.2979 4.00391 22.6081 4.18873 22 4.5398L8 12.5398C7.39253 12.8905 6.88796 13.3948 6.53692 14.0021C6.18589 14.6094 6.00072 15.2984 6 15.9998V31.9998C6.00072 32.7013 6.18589 33.3902 6.53692 33.9975C6.88796 34.6048 7.39253 35.1091 8 35.4598L22 43.4598C22.6081 43.8109 23.2979 43.9957 24 43.9957C24.7021 43.9957 25.3919 43.8109 26 43.4598L40 35.4598C40.6075 35.1091 41.112 34.6048 41.4631 33.9975C41.8141 33.3902 41.9993 32.7013 42 31.9998Z" stroke="#D2C1B6" stroke-opacity="0.4" stroke-width="3" stroke-linecap="round" stroke-linejoin="round"/>
</svg>
