<svg width="40" height="44" viewBox="0 0 40 44" fill="none" xmlns="http://www.w3.org/2000/svg">
<path d="M32.7803 23.6197L20.0136 21.9609L12.2316 32.2166M15.0437 10.0817L20.0185 21.9727M7.45229 21.6854L11.4005 31.1227C11.574 31.5362 11.853 31.897 12.2094 32.1688C12.5659 32.4406 12.9872 32.6138 13.4312 32.6711L23.6437 33.9431C24.0881 34.0005 24.5396 33.9397 24.9528 33.7668C25.366 33.594 25.7263 33.3151 25.9975 32.9584L32.2617 24.7931C32.5326 24.4367 32.705 24.015 32.7618 23.5704C32.8185 23.1258 32.7574 22.6738 32.5848 22.2599L28.6365 12.8226C28.463 12.4091 28.184 12.0483 27.8276 11.7765C27.4712 11.5048 27.0498 11.3315 26.6058 11.2742L16.3934 10.0022C15.9489 9.94482 15.4974 10.0056 15.0842 10.1785C14.6711 10.3513 14.3108 10.6302 14.0396 10.9869L7.77538 19.1522C7.50446 19.5086 7.33199 19.9303 7.27528 20.3749C7.21857 20.8196 7.27962 21.2715 7.45229 21.6854Z" stroke="#A4CFC9" stroke-width="2" stroke-linecap="round" stroke-linejoin="round"/>
<path d="M2.54 11.9159L20 22.0159L37.46 11.9159M20 42.1559V21.9959M38 29.9959V13.9959C37.9993 13.2944 37.8141 12.6055 37.4631 11.9982C37.112 11.3909 36.6075 10.8866 36 10.5359L22 2.5359C21.3919 2.18482 20.7021 2 20 2C19.2979 2 18.6081 2.18482 18 2.5359L4 10.5359C3.39253 10.8866 2.88796 11.3909 2.53692 11.9982C2.18589 12.6055 2.00072 13.2944 2 13.9959V29.9959C2.00072 30.6974 2.18589 31.3863 2.53692 31.9936C2.88796 32.6009 3.39253 33.1052 4 33.4559L18 41.4559C18.6081 41.807 19.2979 41.9918 20 41.9918C20.7021 41.9918 21.3919 41.807 22 41.4559L36 33.4559C36.6075 33.1052 37.112 32.6009 37.4631 31.9936C37.8141 31.3863 37.9993 30.6974 38 29.9959Z" stroke="#D2C1B6" stroke-opacity="0.4" stroke-width="3" stroke-linecap="round" stroke-linejoin="round"/>
</svg>
